# xmcd CD database file
#
# Track frame offsets:
#	150
#	13411
#	28112
#	43284
#	58773
#	72517
#	87176
#	101281
#	115748
#	129888
#	144794
#
# Disc length: 2125 seconds
#
# Revision: 0
# Processed by: cddbd v1.5.1PL0 Copyright (c) Steve Scherf et al.
# Submitted via: CDex 1.51
#
DISCID=93084b0b
DTITLE=5/4TAKEPOD - Gaccha!
DYEAR=1900
DGENRE=ゲーム
TTITLE0=うたわれるもの -Voiceless Singer-
TTITLE1=寝覚月 -Instinctive Dread-
TTITLE2=命 -Digestion: You And I-
TTITLE3=子守唄 -Symptom Of Mystery-
TTITLE4=初音 -Caprices Of Neon-
TTITLE5=緑の唄声 -Ethereal Things-
TTITLE6=月光花 -Blued Glow-
TTITLE7=采配をふるう者 -Above The Cross-
TTITLE8=日だまりの中で -Rest For A Spell-
TTITLE9=ためいき -The Basics Are Here-
TTITLE10=うたわれるもの -Story Of Takepod-
EXTD=
EXTT0=
EXTT1=
EXTT2=
EXTT3=
EXTT4=
EXTT5=
EXTT6=
EXTT7=
EXTT8=
EXTT9=
EXTT10=
PLAYORDER=
